<svg xmlns="http://www.w3.org/2000/svg" version="1.1" xmlns:xlink="http://www.w3.org/1999/xlink" xmlns:svgjs="http://svgjs.dev/svgjs" width="1000" height="265" viewBox="0 0 1000 265"><g transform="matrix(1,0,0,1,-0.6060606060606233,0.5461412648008945)"><svg viewBox="0 0 396 105" data-background-color="#ffffff" preserveAspectRatio="xMidYMid meet" height="265" width="1000" xmlns="http://www.w3.org/2000/svg" xmlns:xlink="http://www.w3.org/1999/xlink"><g id="tight-bounds" transform="matrix(1,0,0,1,0.2400000000000091,-0.2163955954871426)"><svg viewBox="0 0 395.52 105.43279119097429" height="105.43279119097429" width="395.52"><g><svg viewBox="0 0 622.8479103996744 166.03103175794786" height="105.43279119097429" width="395.52"><g transform="matrix(1,0,0,1,0,18.10328566314658)"><svg viewBox="0 0 395.52 129.8244604316547" height="129.8244604316547" width="395.52"><g><svg viewBox="0 0 395.52 129.8244604316547" height="129.8244604316547" width="395.52"><g><svg viewBox="0 0 395.52 129.8244604316547" height="129.8244604316547" width="395.52"><g transform="matrix(1,0,0,1,0,0)"><svg width="395.52" viewBox="1.7999999523162842 -36.5 111.19999694824219 36.5" height="129.8244604316547" data-palette-color="#cf0a0a"><g class="undefined-text-0" data-fill-palette-color="primary" id="text-0"><path d="M17.2-33.1L13-32.05 13-19.85 24.75-32.05 20.2-33.1 20.2-36 34.85-36 34.85-33.1 30.45-32.05 19.5-21.2 33.85-3.85 38.05-2.9 38.05 0 22.6 0 22.6-2.9 25.9-3.9 15.3-17 13-14.8 13-3.95 17.2-2.9 17.2 0 1.8 0 1.8-2.9 6.5-3.95 6.5-32.05 1.8-33.1 1.8-36 17.2-36 17.2-33.1ZM59-2.9L63.1-3.95 60.55-11.7 48.35-11.7 45.75-3.95 49.9-2.9 49.9 0 36.7 0 36.7-2.9 40.8-3.95 52.5-36.5 58.65-36.5 70.25-3.95 74.25-2.9 74.25 0 59 0 59-2.9ZM54.7-29.9L54.5-29.9 49.6-15.35 59.35-15.35 54.7-29.9ZM75.8-2.9L80-3.95 80-32.05 75.8-33.1 75.8-36 87.34-36 104.05-9.6 104.05-32.05 99.84-33.1 99.84-36 113-36 113-33.1 108.8-32.05 108.8 0 103.25 0 84.75-28.7 84.75-3.95 88.95-2.9 88.95 0 75.8 0 75.8-2.9Z" fill="#cf0a0a" data-fill-palette-color="primary"></path></g></svg></g></svg></g></svg></g></svg></g><g transform="matrix(1,0,0,1,456.8168786417266,0)"><svg viewBox="0 0 166.03103175794786 166.03103175794786" height="166.03103175794786" width="166.03103175794786"><g><svg></svg></g><g id="icon-0"><svg viewBox="0 0 166.03103175794786 166.03103175794786" height="166.03103175794786" width="166.03103175794786"><g><path d="M0 83.016c0-45.848 37.167-83.016 83.016-83.016 45.848 0 83.016 37.167 83.015 83.016 0 45.848-37.167 83.016-83.015 83.015-45.848 0-83.016-37.167-83.016-83.015zM83.016 154.323c39.382 0 71.308-31.926 71.307-71.307 0-39.382-31.926-71.308-71.307-71.308-39.382 0-71.308 31.926-71.308 71.308 0 39.382 31.926 71.308 71.308 71.307z" data-fill-palette-color="accent" fill="#111111" stroke="transparent"></path></g><g transform="matrix(1,0,0,1,42.73647464896021,39.07474362804987)"><svg viewBox="0 0 80.55808246002744 87.88154450184811" height="87.88154450184811" width="80.55808246002744"><g><svg xmlns="http://www.w3.org/2000/svg" xmlns:xlink="http://www.w3.org/1999/xlink" version="1.1" x="0" y="0" viewBox="8.75 5 82.5 90" enable-background="new 0 0 100 100" xml:space="preserve" height="87.88154450184811" width="80.55808246002744" class="icon-a-0" data-fill-palette-color="accent" id="a-0"><path d="M43.397 65.732c1.366-1.498 2.294-3.096 2.668-4.898C47.32 61.106 48.632 61.25 50 61.25c1.372 0 2.674-0.107 3.909-0.311 0.33 1.919 1.166 3.514 2.436 4.952C52.207 68.38 47.511 68.327 43.397 65.732zM35.855 39.414c1.586 0.731 3.561 1.162 5.895 1.136 2.625 0.075 6.375-1.8 6.375-7.125V31.25h3.75v2.175c0 5.325 3.75 7.2 6.375 7.125 2.627 0.029 4.799-0.521 6.473-1.425C62.83 47.402 58.214 53 50 53 43.62 53 38.37 47.233 35.855 39.414zM40.398 15.806c9.251 9.692 16.262 9.445 24.955 8.782 0.244 1.274 0.378 2.64 0.395 4.094-1.61-0.788-3.794-1.182-6.373-1.182h-18.75c-2.578 0-4.762 0.394-6.372 1.182C34.345 23.772 36.551 18.901 40.398 15.806zM87.5 75.5l-21-11.25c-3.745-1.872-4.86-4.037-5.17-6.129C69.82 52.657 73.25 40.829 73.25 29c0-2.256-0.233-4.398-0.679-6.405 3.313-1.513 5.552-3.952 6.342-7.583-4.132 3.028-7.518 1.936-9.798-0.572C65.091 8.517 58.369 5 50 5 35 5 26.75 17 26.75 29c0 10.676 4.179 22.491 11.996 28.416-0.168 2.305-1.079 4.75-5.246 6.834l-21 11.25C8.75 83 8.75 95 8.75 95h30l1.362-21.791c6.422 3.93 13.354 3.93 19.776 0L61.25 95h30C91.25 95 91.25 83 87.5 75.5z" fill="#111111" data-fill-palette-color="accent"></path></svg></g></svg></g></svg></g></svg></g></svg></g><defs></defs></svg><rect width="395.52" height="105.43279119097429" fill="none" stroke="none" visibility="hidden"></rect></g></svg></g></svg>